<?xml version="1.0" encoding="utf-8"?>
<!-- Generator: Adobe Illustrator 24.1.2, SVG Export Plug-In . SVG Version: 6.00 Build 0)  -->
<svg version="1.1" id="Capa_1" xmlns="http://www.w3.org/2000/svg" xmlns:xlink="http://www.w3.org/1999/xlink" x="0px" y="0px"
	 viewBox="0 0 470.7 470.7" style="enable-background:new 0 0 470.7 470.7;" xml:space="preserve">
<style type="text/css">
	.st0{fill:#E4E4E4;}
</style>
<g>
	<g>
		<path class="st0" d="M96,133.5c3.9,2.7,8.2,4.3,12.6,5.3c-5.3,99-15.8,202.4,20.4,297c1.7,4.5,4.9,7.4,8.6,8.8
			c1.3,1.8,3.1,3.3,5.6,4.5c64.7,28.7,133.5,27.5,199.9,4.5c8.7-3,11.3-11.2,9.7-18.3c12.6-95.9,24.6-194.7,14.7-291.4
			c7.8-1.7,15.1-5,20.6-11.1c10.7-12,8.7-27.3,3.4-41.1c0-3.8-1.8-7.5-5.9-10c-1.6-1.3-3.5-2.1-5.6-2.6
			c-29.7-12.7-61.4-19.3-93.7-22.4c0.6-2.9,0.3-6.1-1.1-9.3c-10.1-23.3-30.2-50.8-59.2-47c-27.9,3.6-41.4,30.8-47,55.7
			c-18.6,1-37,2.2-55,3.2c-0.1,0-0.2,0-0.4,0.1c-0.9-0.1-1.7-0.2-2.6-0.1c-19.3,2.3-35.5,11.5-44,29.6c-1.1,2.4-1.7,4.9-1.7,7.4
			c-0.7,2.5-0.8,5.3,0.2,8.4C79.5,116.7,85.7,126.3,96,133.5z M324.1,428.5c-54.9,16.9-112.2,18.7-165.8-5.1
			c-0.8-0.4-1.6-0.6-2.4-0.8c-33-90.8-22.6-189.4-17.5-284.2c65.5-4.6,131.5-5.7,196.8,2.6c0.8,0.8,1.7,1.5,2.6,2.1
			C347.6,237.8,336.4,334.5,324.1,428.5z M228.7,29.7c12.9-1.7,22,13.3,27.6,25.1c-15.4-0.5-31-0.4-46.4,0
			C212.9,43.4,218.4,31,228.7,29.7z M110.8,92.7c-1.8,1.6,4.9-2.5,2.8-1.6c1.5-0.6,3.1-1,4.6-1.5c-0.4,0.1,4.9-0.9,2.8-0.6
			c0.2,0,0.4-0.1,0.5-0.1c0.8,0.1,1.6,0.2,2.4,0.1c77.3-4.5,167.3-15.4,240.8,15.7c0.2,0.7,0.5,1.4,0.7,2.1c0.3,1,0.5,2.1,0.7,3.1
			c0,0.2,0,0.5,0.1,0.8c0,0.5,0,1.1,0,1.6c0,0,0,0.2-0.1,0.2c-0.3-0.1-2.5,1.5-1.6,1.3c-1.6,0.6-3.3,1-5,1.4
			c-0.8,0.2-1.9,0.3-3.1,0.4c-1.6-1.1-3.5-2-6-2.3c-75.3-10.3-150.9-9.4-226.5-3.5c-1.4,0.1-2.6,0.4-3.8,0.8
			c-7.4-0.1-12.1-3.7-15.2-11.3C106.6,96.9,108.1,95.1,110.8,92.7z"/>
		<path class="st0" d="M186.4,186.9c-0.2-19.1-29.9-19.1-29.7,0c0.4,47.8,5.9,95.1,11.9,142.5c2.3,18.7,32,19,29.7,0
			C192.3,282,186.8,234.7,186.4,186.9z"/>
		<path class="st0" d="M248.7,184c-1-19-30.7-19.1-29.7,0c2.8,52.5,4.7,105,10.4,157.3c2,18.8,31.7,19,29.7,0
			C253.4,289,251.5,236.5,248.7,184z"/>
		<path class="st0" d="M284.9,186.4c8,58.7,4.2,118.1,3.9,177.1c-0.1,19.1,29.6,19.1,29.7,0c0.3-61.9,3.4-123.4-5-185
			C310.9,159.6,282.3,167.7,284.9,186.4z"/>
	</g>
</g>
<g>
	<g>
		<path class="st0" d="M96,133.5c3.9,2.7,8.2,4.3,12.6,5.3c-5.3,99-15.8,202.4,20.4,297c1.7,4.5,4.9,7.4,8.6,8.8
			c1.3,1.8,3.1,3.3,5.6,4.5c64.7,28.7,133.5,27.5,199.9,4.5c8.7-3,11.3-11.2,9.7-18.3c12.6-95.9,24.6-194.7,14.7-291.4
			c7.8-1.7,15.1-5,20.6-11.1c10.7-12,8.7-27.3,3.4-41.1c0-3.8-1.8-7.5-5.9-10c-1.6-1.3-3.5-2.1-5.6-2.6
			c-29.7-12.7-61.4-19.3-93.7-22.4c0.6-2.9,0.3-6.1-1.1-9.3c-10.1-23.3-30.2-50.8-59.2-47c-27.9,3.6-41.4,30.8-47,55.7
			c-18.6,1-37,2.2-55,3.2c-0.1,0-0.2,0-0.4,0.1c-0.9-0.1-1.7-0.2-2.6-0.1c-19.3,2.3-35.5,11.5-44,29.6c-1.1,2.4-1.7,4.9-1.7,7.4
			c-0.7,2.5-0.8,5.3,0.2,8.4C79.5,116.7,85.7,126.3,96,133.5z M324.1,428.5c-54.9,16.9-112.2,18.7-165.8-5.1
			c-0.8-0.4-1.6-0.6-2.4-0.8c-33-90.8-22.6-189.4-17.5-284.2c65.5-4.6,131.5-5.7,196.8,2.6c0.8,0.8,1.7,1.5,2.6,2.1
			C347.6,237.8,336.4,334.5,324.1,428.5z M228.7,29.7c12.9-1.7,22,13.3,27.6,25.1c-15.4-0.5-31-0.4-46.4,0
			C212.9,43.4,218.4,31,228.7,29.7z M110.8,92.7c-1.8,1.6,4.9-2.5,2.8-1.6c1.5-0.6,3.1-1,4.6-1.5c-0.4,0.1,4.9-0.9,2.8-0.6
			c0.2,0,0.4-0.1,0.5-0.1c0.8,0.1,1.6,0.2,2.4,0.1c77.3-4.5,167.3-15.4,240.8,15.7c0.2,0.7,0.5,1.4,0.7,2.1c0.3,1,0.5,2.1,0.7,3.1
			c0,0.2,0,0.5,0.1,0.8c0,0.5,0,1.1,0,1.6c0,0,0,0.2-0.1,0.2c-0.3-0.1-2.5,1.5-1.6,1.3c-1.6,0.6-3.3,1-5,1.4
			c-0.8,0.2-1.9,0.3-3.1,0.4c-1.6-1.1-3.5-2-6-2.3c-75.3-10.3-150.9-9.4-226.5-3.5c-1.4,0.1-2.6,0.4-3.8,0.8
			c-7.4-0.1-12.1-3.7-15.2-11.3C106.6,96.9,108.1,95.1,110.8,92.7z"/>
		<path class="st0" d="M186.4,186.9c-0.2-19.1-29.9-19.1-29.7,0c0.4,47.8,5.9,95.1,11.9,142.5c2.3,18.7,32,19,29.7,0
			C192.3,282,186.8,234.7,186.4,186.9z"/>
		<path class="st0" d="M248.7,184c-1-19-30.7-19.1-29.7,0c2.8,52.5,4.7,105,10.4,157.3c2,18.8,31.7,19,29.7,0
			C253.4,289,251.5,236.5,248.7,184z"/>
		<path class="st0" d="M284.9,186.4c8,58.7,4.2,118.1,3.9,177.1c-0.1,19.1,29.6,19.1,29.7,0c0.3-61.9,3.4-123.4-5-185
			C310.9,159.6,282.3,167.7,284.9,186.4z"/>
	</g>
</g>
</svg>
