<?xml version="1.0" encoding="utf-8"?>
<!-- Generator: Adobe Illustrator 24.1.2, SVG Export Plug-In . SVG Version: 6.00 Build 0)  -->
<svg version="1.1" id="Capa_1" xmlns="http://www.w3.org/2000/svg" xmlns:xlink="http://www.w3.org/1999/xlink" x="0px" y="0px"
	 viewBox="0 0 481.2 481.2" style="enable-background:new 0 0 481.2 481.2;" xml:space="preserve">
<style type="text/css">
	.st0{fill:#E4E4E4;}
</style>
<g>
	<g>
		<path class="st0" d="M218.9,101.8c-96.5,4.7-186.7,59.7-218,153.5c-0.9,2.6-1,4.9-0.6,7c-0.7,3.2-0.3,6.7,2.1,10.4
			c106,162.4,358.2,123.9,473.1-8.9c0.8-0.9,1.5-1.9,2-2.9c3.6-4.2,5.1-10.3,1.8-16.6C428.6,148,325.9,96.6,218.9,101.8z M30.4,261
			c23.8-68.3,83.4-109.3,151-124c-42.3,16.9-76,53.1-80.9,101c-4.1,40.6,14,78.4,43.4,103.3C99.1,328.9,59.1,303.2,30.4,261z
			 M223.1,343.5c-53.4,3.1-97.6-48.5-95.6-99.4c1.7-42.1,35-72.8,73.1-84.6c12.5-0.9,25-0.9,37.5,0.3c1.2,0.1,2.3,0.1,3.3-0.1
			c45.2,12.4,80.9,51.9,73.9,102.6C309,307.2,266.9,340.9,223.1,343.5z M304.9,336.3c20-19.5,34.1-45.2,37.9-72.4
			c9.2-66.4-40.7-118.6-100.9-132.4c-0.1-0.2-0.2-0.4-0.4-0.5c84.5,1.4,163.5,45.3,206.7,118.8C411.4,289.2,360.1,319.6,304.9,336.3
			z"/>
		<path class="st0" d="M280.7,239.4c-5.1-14.8-12.9-27.8-26.6-36.1c-3.2-1.9-6.6-3.3-10.2-4.3c-4.4-1.8-8.9-2.9-13.5-3.5
			c0.4,0.6,0.8,1.2,1.1,1.8c3.7,7.3,4.4,14.7,3.2,22.7c-0.9,6-4.2,12.7-8.9,16.6c-7,5.8-15.7,8.2-24.6,5.7
			c-9.3-2.6-17.1-9.2-23.4-16.3c-1.4-1.6-2.4-3.4-3.1-5.2c-12.5,15-15,35.2-0.3,53.6c17.8,22.2,51.3,29.7,77.4,19.5
			c0.4-0.2,0.7-0.4,1.1-0.5c2.6-0.5,5-1.6,6.9-3.4c1.3-0.8,2.5-1.7,3.7-2.9c10.1-10.5,18.6-23.4,17.8-38.5c0-0.3-0.1-0.5-0.1-0.7
			C281.8,245.4,281.7,242.6,280.7,239.4z"/>
	</g>
</g>
</svg>
