<?xml version="1.0" encoding="utf-8"?>
<!-- Generator: Adobe Illustrator 24.1.2, SVG Export Plug-In . SVG Version: 6.00 Build 0)  -->
<svg version="1.1" id="Capa_1" xmlns="http://www.w3.org/2000/svg" xmlns:xlink="http://www.w3.org/1999/xlink" x="0px" y="0px"
	 viewBox="0 0 422.7 422.7" style="enable-background:new 0 0 422.7 422.7;" xml:space="preserve">
<style type="text/css">
	.st0{fill:url(#SVGID_1_);}
	.st1{fill:url(#SVGID_2_);}
</style>
<g>
	<g>
		<g>
			<linearGradient id="SVGID_1_" gradientUnits="userSpaceOnUse" x1="51.0999" y1="309.0002" x2="297.7125" y2="62.3875">
				<stop  offset="0" style="stop-color:#7588FA"/>
				<stop  offset="0.5" style="stop-color:#CC6699"/>
				<stop  offset="0.5095" style="stop-color:#CC6699"/>
				<stop  offset="1" style="stop-color:#7588FA"/>
			</linearGradient>
			<path class="st0" d="M348.8,185.7c0-96.3-78.1-174.4-174.4-174.4C78.1,11.3,0,89.4,0,185.7C0,232,18.4,276.3,51.1,309
				c32.7,32.8,77.1,51.1,123.3,51.1l0,0C270.7,360.1,348.8,282,348.8,185.7z M240.4,109.5c15.8-9.2,36-3.8,45.2,12s3.8,36-12,45.2
				s-36,3.8-45.2-12C219.2,138.8,224.6,118.6,240.4,109.5z M108.6,261.9c-15.8,9.2-36,3.8-45.2-12s-3.8-36,12-45.2l0,0
				c15.8-9.2,36-3.8,45.2,12C129.7,232.5,124.3,252.7,108.6,261.9z M120.6,154.7c-9.2,15.8-29.4,21.2-45.2,12s-21.1-29.4-12-45.2
				c9.2-15.8,29.4-21.2,45.2-12C124.3,118.7,129.7,138.9,120.6,154.7z M174.4,314c-18.2,0-33-14.8-33-33s14.8-33,33-33
				s33,14.8,33,33S192.6,314,174.4,314z M149.7,185.7c0-13.6,11.1-24.7,24.7-24.7s24.7,11.1,24.7,24.7s-11.1,24.7-24.7,24.7
				S149.7,199.3,149.7,185.7z M174.4,123.5c-18.2,0-33-14.8-33-33s14.8-33,33-33s33,14.8,33,33S192.6,123.5,174.4,123.5z M285.5,250
				c-9.2,15.8-29.4,21.2-45.2,12c-15.8-9.1-21.2-29.4-12.1-45.2h0.1c9.2-15.8,29.4-21.2,45.2-12S294.7,234.2,285.5,250z"/>
			<linearGradient id="SVGID_2_" gradientUnits="userSpaceOnUse" x1="264.1485" y1="426.3485" x2="379.4004" y2="311.0966">
				<stop  offset="0" style="stop-color:#7588FA"/>
				<stop  offset="0.5" style="stop-color:#CC6699"/>
				<stop  offset="0.5095" style="stop-color:#CC6699"/>
				<stop  offset="1" style="stop-color:#7588FA"/>
			</linearGradient>
			<path class="st1" d="M418.8,355.3c-3.2-6.4-7.4-12.2-12.4-17.2c-5.8-5.9-12.6-10.8-20-14.6c-18.3-9.2-42.6-12-70.6,1.9
				c-8.2,4-16.7,7.3-25.4,9.9c-23.7,18.4-51.4,30.8-80.9,36.4c26.6,4,55.7,1.1,81.2-1.3c12.9-1.5,25.9-2.3,38.8-2.4
				c28.6,0.7,27,31,26.7,34.3c-0.6,4.4,2.4,8.4,6.8,9c1.8,0.3,3.6-0.1,5.2-1l49.7-28.8c1.4-0.8,2.5-2,3.2-3.4
				C423.9,372.4,423,364,418.8,355.3z"/>
		</g>
	</g>
</g>
</svg>
